# xmcd CD database file
#
# Track frame offsets:
#	150
#	19994
#	37936
#	58473
#	74365
#	100527
#	120500
#	145889
#	169191
#	185646
#	211178
#	236797
#
# Disc length: 3536 seconds
#
# Revision: 6
# Processed by: cddbd v1.5.1PL0 Copyright (c) Steve Scherf et al.
# Submitted via: CDex 1.51
#
DISCID=ac0dce0c
DTITLE=安室奈美恵 - 181920
DYEAR=1998
DGENRE=Other
TTITLE0=Body Feels EXIT
TTITLE1=TRY ME 〜私を信じて〜
TTITLE2=Chase the Chance
TTITLE3=太陽のSEASON
TTITLE4=You're my sunshine
TTITLE5=How to be a Girl
TTITLE6=SWEET 19 BLUES
TTITLE7=Dreaming I was dreaming
TTITLE8=Stop the music
TTITLE9=a walk in the park
TTITLE10=Don't wanna cry
TTITLE11=CAN YOU CELEBRATE?
EXTD=YEAR: 1998
EXTT0=
EXTT1=
EXTT2=
EXTT3=
EXTT4=
EXTT5=
EXTT6=
EXTT7=
EXTT8=
EXTT9=
EXTT10=
EXTT11=
PLAYORDER=
